<svg id="Layer_1" data-name="Layer 1" xmlns="http://www.w3.org/2000/svg" viewBox="0 0 1500 1000"><defs><style>.cls-1{fill:#fff;}.cls-2{fill:red;}.cls-3{fill:#b3ddf2;}</style></defs><title>Chicago</title><path class="cls-1" d="M0,0H1500V1000H0Z"/><path class="cls-2" d="M312.5,375l22.92,85.42,85.41-22.92L358.33,500l62.5,62.5-85.41-22.92L312.5,625l-22.92-85.42L204.17,562.5l62.5-62.5-62.5-62.5,85.41,22.92Zm291.67,0,22.91,85.42L712.5,437.5,650,500l62.5,62.5-85.42-22.92L604.17,625l-22.92-85.42L495.83,562.5l62.5-62.5-62.5-62.5,85.42,22.92Zm291.66,0,22.92,85.42,85.42-22.92L941.67,500l62.5,62.5-85.42-22.92L895.83,625l-22.91-85.42L787.5,562.5,850,500l-62.5-62.5,85.42,22.92Zm291.67,0,22.92,85.42,85.41-22.92-62.5,62.5,62.5,62.5-85.41-22.92L1187.5,625l-22.92-85.42-85.41,22.92,62.5-62.5-62.5-62.5,85.41,22.92Z"/><path class="cls-3" d="M0,166.67H1500V333.33H0V666.67H1500V833.33H0Z"/></svg>