<svg xmlns="http://www.w3.org/2000/svg" viewBox="0 0 100 100">
  <rect width="100" height="100" fill="#000"/>
  <g transform="translate(19.35 14.83) scale(0.847)" fill="#fff">
    <path fill-rule="evenodd" clip-rule="evenodd" d="M38.8996 82.8C58.9996 82.8 72.3996 74.3 72.3996 57.3V57.1C72.3996 41.6 60.5996 35.4 41.4996 31.3C29.9996 28.7 27.1996 27 27.1996 23.3V23.1C27.1996 20.1 29.8996 17.8 35.4996 17.8C41.0996 17.8 47.3996 19.5 53.3996 22.7C54.5996 24.6 55.5996 26.2 56.9996 28.6L70.1996 9.8C61.1996 2.6 50.1996 0.199997 36.0996 0.199997C21.9996 0.199997 3.99961 9.9 3.99961 25.3V25.5C3.99961 42.5 17.5996 47.5 35.1996 51.5C46.3996 54.1 49.1996 56 49.1996 59.4V59.6C49.1996 63.2 45.8996 65.3 39.6996 65.3C33.4996 65.3 24.6996 63.1 17.9996 58.9C17.0996 57.2 15.8996 54.9 14.6996 52.8L0.0996094 70.6C10.2996 79.7 24.1996 82.8 38.8996 82.8Z"/>
  </g>
</svg>
