<!-- Generated by IcoMoon.io -->
<svg version="1.1" xmlns="http://www.w3.org/2000/svg" width="3562" height="1024" viewBox="0 0 3562 1024">
<g id="icomoon-ignore">
</g>
<path fill="var(--logo-color, #fff)" d="M1313.747 901.565v-278.172h-109.702v-64.646h298.741v64.646h-109.702v278.172h-79.338zM1638.678 905.483c-28.082 0-53.059-5.877-74.93-17.631-21.549-11.754-38.689-27.752-51.423-47.994-12.41-20.569-18.61-43.913-18.61-70.033 0-26.446 6.2-49.79 18.61-70.033 12.733-20.569 29.874-36.567 51.423-47.994 21.871-11.754 46.848-17.631 74.93-17.631 27.748 0 52.569 5.877 74.44 17.631 21.871 11.428 39.012 27.262 51.423 47.505s18.61 43.75 18.61 70.522c0 26.12-6.2 49.464-18.61 70.033-12.41 20.243-29.551 36.241-51.423 47.994s-46.692 17.631-74.44 17.631zM1638.678 842.797c12.733 0 24.164-2.938 34.282-8.815s18.12-14.202 23.997-24.977c5.877-11.1 8.815-24.161 8.815-39.179 0-15.346-2.938-28.405-8.815-39.179s-13.88-19.1-23.997-24.977c-10.118-5.877-21.549-8.815-34.282-8.815s-24.164 2.938-34.282 8.815c-10.118 5.877-18.287 14.202-24.487 24.977-5.877 10.774-8.815 23.834-8.815 39.179 0 15.018 2.938 28.079 8.815 39.179 6.2 10.774 14.369 19.1 24.487 24.977s21.549 8.815 34.282 8.815zM1958.122 1000.493c-24.81 0-48.807-3.102-71.992-9.305-22.851-5.877-41.951-14.856-57.299-26.936l30.364-54.851c11.097 9.141 25.144 16.325 42.118 21.549 17.308 5.551 34.282 8.326 50.933 8.326 27.103 0 46.692-6.040 58.769-18.12 12.41-12.080 18.61-30.038 18.61-53.871v-39.669l4.897-66.115-0.979-66.605v-56.81h72.481v219.403c0 48.974-12.733 85.051-38.2 108.232s-62.030 34.771-109.702 34.771zM1946.368 888.832c-24.487 0-46.692-5.224-66.605-15.672-19.59-10.774-35.428-25.63-47.505-44.566-11.754-19.263-17.631-41.628-17.631-67.094 0-25.793 5.877-48.158 17.631-67.094 12.077-19.263 27.915-34.118 47.505-44.566 19.912-10.448 42.118-15.672 66.605-15.672 22.205 0 41.795 4.571 58.769 13.713 16.974 8.815 30.197 22.692 39.669 41.628 9.472 18.61 14.202 42.607 14.202 71.992 0 29.058-4.73 53.055-14.202 71.992-9.472 18.61-22.695 32.486-39.669 41.628s-36.563 13.713-58.769 13.713zM1961.55 826.145c13.39 0 25.299-2.612 35.751-7.836 10.451-5.551 18.61-13.223 24.487-23.018s8.815-21.059 8.815-33.792c0-13.059-2.938-24.323-8.815-33.792-5.877-9.795-14.035-17.304-24.487-22.528-10.451-5.551-22.361-8.326-35.751-8.326s-25.299 2.775-35.751 8.326c-10.451 5.224-18.777 12.733-24.977 22.528-5.877 9.469-8.815 20.733-8.815 33.792 0 12.733 2.938 23.997 8.815 33.792 6.2 9.795 14.525 17.467 24.977 23.018 10.451 5.224 22.361 7.836 35.751 7.836zM2307.896 905.483c-30.041 0-56.487-5.877-79.338-17.631-22.528-11.754-40.003-27.752-52.402-47.994-12.41-20.569-18.61-43.913-18.61-70.033 0-26.446 6.033-49.79 18.12-70.033 12.399-20.569 29.217-36.567 50.443-47.994 21.215-11.754 45.212-17.631 71.992-17.631 25.789 0 48.974 5.551 69.543 16.651 20.892 10.774 37.376 26.446 49.464 47.015 12.077 20.243 18.12 44.566 18.12 72.971 0 2.938-0.167 6.367-0.49 10.285-0.334 3.592-0.657 7.020-0.979 10.285h-214.016v-44.566h173.857l-29.384 13.223c0-13.713-2.783-25.63-8.326-35.751-5.554-10.121-13.223-17.957-23.018-23.507-9.795-5.877-21.226-8.815-34.282-8.815-13.067 0-24.654 2.938-34.771 8.815-9.795 5.551-17.475 13.549-23.018 23.997-5.554 10.121-8.326 22.202-8.326 36.241v11.754c0 14.366 3.094 27.099 9.305 38.2 6.522 10.774 15.505 19.1 26.936 24.977 11.754 5.551 25.466 8.326 41.138 8.326 14.035 0 26.279-2.123 36.73-6.367 10.774-4.244 20.569-10.611 29.384-19.1l40.648 44.077c-12.088 13.713-27.27 24.323-45.546 31.833-18.287 7.182-39.346 10.774-63.176 10.774zM2593.825 905.483c-31.009 0-55.174-7.836-72.481-23.507-17.297-15.998-25.956-39.669-25.956-71.012v-231.157h76.399v230.177c0 11.1 2.938 19.753 8.815 25.956 5.877 5.877 13.88 8.815 23.997 8.815 12.088 0 22.372-3.265 30.854-9.795l20.569 53.871c-7.836 5.551-17.297 9.795-28.405 12.733-10.774 2.612-22.038 3.918-33.792 3.918zM2454.739 702.731v-58.769h182.673v58.769h-182.673zM2859.064 634.168c20.892 0 39.502 4.244 55.83 12.733 16.651 8.162 29.707 20.895 39.179 38.2 9.461 16.977 14.202 38.853 14.202 65.625v150.84h-76.399v-139.086c0-21.222-4.742-36.894-14.202-47.015-9.149-10.121-22.205-15.182-39.179-15.182-12.088 0-23.018 2.612-32.813 7.836-9.472 4.897-16.985 12.57-22.528 23.018-5.231 10.448-7.836 23.834-7.836 40.159v130.271h-76.399v-363.386h76.399v172.878l-17.141-22.038c9.461-17.631 23.018-31.18 40.648-40.648s37.71-14.202 60.238-14.202zM3170.193 905.483c-30.030 0-56.476-5.877-79.338-17.631-22.528-11.754-39.992-27.752-52.402-47.994-12.399-20.569-18.61-43.913-18.61-70.033 0-26.446 6.044-49.79 18.12-70.033 12.41-20.569 29.229-36.567 50.443-47.994 21.226-11.754 45.223-17.631 71.992-17.631 25.8 0 48.974 5.551 69.543 16.651 20.903 10.774 37.387 26.446 49.464 47.015 12.088 20.243 18.12 44.566 18.12 72.971 0 2.938-0.156 6.367-0.49 10.285-0.323 3.592-0.646 7.020-0.979 10.285h-214.016v-44.566h173.857l-29.384 13.223c0-13.713-2.771-25.63-8.326-35.751-5.543-10.121-13.223-17.957-23.018-23.507-9.795-5.877-21.215-8.815-34.282-8.815-13.056 0-24.643 2.938-34.771 8.815-9.795 5.551-17.464 13.549-23.018 23.997-5.543 10.121-8.326 22.202-8.326 36.241v11.754c0 14.366 3.105 27.099 9.305 38.2 6.534 10.774 15.516 19.1 26.936 24.977 11.754 5.551 25.466 8.326 41.138 8.326 14.047 0 26.29-2.123 36.73-6.367 10.774-4.244 20.569-10.611 29.384-19.1l40.648 44.077c-12.077 13.713-27.258 24.323-45.546 31.833-18.276 7.182-39.335 10.774-63.176 10.774zM3348.391 901.565v-263.48h72.971v74.44l-10.285-21.549c7.836-18.61 20.402-32.649 37.71-42.118 17.308-9.795 38.367-14.692 63.176-14.692v70.522c-3.261-0.326-6.2-0.49-8.815-0.49-2.616-0.326-5.387-0.49-8.326-0.49-20.892 0-37.877 6.040-50.933 18.12-12.733 11.754-19.1 30.2-19.1 55.341v124.394h-76.399z"></path>
<path fill="var(--logo-color, #fff)" d="M1242.735 400.696v-342.817h148.391c30.687 0 57.133 5.061 79.338 15.182 22.205 9.795 39.346 23.997 51.423 42.607s18.12 40.812 18.12 66.605c0 25.466-6.044 47.505-18.12 66.115s-29.217 32.976-51.423 43.097c-22.205 9.795-48.651 14.692-79.338 14.692h-104.314l35.261-35.751v130.271h-79.338zM1322.073 279.24l-35.261-37.71h99.907c24.487 0 42.774-5.224 54.851-15.672s18.12-24.977 18.12-43.587c0-18.936-6.044-33.628-18.12-44.077s-30.364-15.672-54.851-15.672h-99.907l35.261-37.71v194.426zM1707.219 404.614c-21.882 0-41.472-4.244-58.769-12.733-16.985-8.489-30.208-21.385-39.669-38.689-9.472-17.631-14.202-39.995-14.202-67.094v-148.881h76.399v137.617c0 21.875 4.563 38.036 13.713 48.484 9.461 10.121 22.684 15.182 39.669 15.182 11.754 0 22.194-2.449 31.343-7.346 9.138-5.224 16.317-13.059 21.549-23.507 5.22-10.774 7.836-24.161 7.836-40.159v-130.271h76.399v263.48h-72.481v-72.481l13.223 21.059c-8.815 18.284-21.882 32.159-39.179 41.628-16.985 9.141-35.595 13.713-55.83 13.713zM2020.909 404.614c-22.528 0-44.243-2.612-65.135-7.836-20.569-5.551-36.897-12.407-48.974-20.569l25.466-54.851c12.077 7.51 26.279 13.713 42.607 18.61 16.651 4.571 32.968 6.856 48.974 6.856 17.631 0 30.030-2.123 37.22-6.367 7.502-4.244 11.264-10.121 11.264-17.631 0-6.203-2.938-10.774-8.815-13.713-5.554-3.265-13.067-5.713-22.528-7.346-9.472-1.633-19.923-3.265-31.343-4.897-11.108-1.633-22.372-3.754-33.792-6.367-11.431-2.938-21.882-7.182-31.343-12.733-9.472-5.551-17.141-13.059-23.018-22.528-5.554-9.469-8.326-21.712-8.326-36.73 0-16.651 4.73-31.343 14.202-44.077 9.795-12.733 23.83-22.692 42.118-29.874 18.276-7.51 40.159-11.264 65.625-11.264 17.953 0 36.241 1.959 54.851 5.877s34.115 9.631 46.525 17.141l-25.466 54.361c-12.733-7.51-25.633-12.57-38.689-15.182-12.733-2.938-25.144-4.408-37.22-4.408-16.985 0-29.384 2.285-37.22 6.856s-11.754 10.448-11.754 17.631c0 6.53 2.771 11.428 8.326 14.692 5.877 3.265 13.546 5.877 23.018 7.836 9.461 1.959 19.745 3.754 30.854 5.387 11.42 1.306 22.851 3.428 34.282 6.367 11.42 2.938 21.704 7.182 30.854 12.733 9.461 5.224 17.141 12.57 23.018 22.038 5.877 9.141 8.815 21.222 8.815 36.241 0 16.325-4.897 30.854-14.692 43.587-9.795 12.407-23.997 22.202-42.607 29.384-18.287 7.182-40.648 10.774-67.094 10.774zM2352.584 133.298c20.892 0 39.502 4.244 55.83 12.733 16.651 8.162 29.707 20.895 39.179 38.2 9.461 16.977 14.202 38.853 14.202 65.625v150.84h-76.399v-139.086c0-21.222-4.742-36.894-14.202-47.015-9.149-10.121-22.205-15.182-39.179-15.182-12.088 0-23.018 2.612-32.813 7.836-9.472 4.897-16.985 12.57-22.528 23.018-5.231 10.448-7.836 23.834-7.836 40.159v130.271h-76.399v-363.386h76.399v172.878l-17.141-22.038c9.461-17.631 23.018-31.18 40.648-40.648s37.71-14.202 60.238-14.202zM2531.039 400.696v-263.48h76.399v263.48h-76.399zM2569.238 100.486c-14.035 0-25.466-4.081-34.282-12.243s-13.223-18.284-13.223-30.364c0-12.080 4.408-22.202 13.223-30.364s20.246-12.243 34.282-12.243c14.047 0 25.466 3.918 34.282 11.754 8.815 7.509 13.223 17.304 13.223 29.384 0 12.733-4.408 23.344-13.223 31.833-8.481 8.162-19.912 12.243-34.282 12.243zM2838.495 133.298c20.892 0 39.502 4.244 55.83 12.733 16.651 8.162 29.707 20.895 39.179 38.2 9.472 16.977 14.202 38.853 14.202 65.625v150.84h-76.399v-139.086c0-21.222-4.73-36.894-14.202-47.015-9.138-10.121-22.205-15.182-39.179-15.182-12.077 0-23.018 2.612-32.813 7.836-9.472 4.897-16.974 12.57-22.528 23.018-5.22 10.448-7.836 23.834-7.836 40.159v130.271h-76.399v-263.48h72.971v72.971l-13.713-22.038c9.472-17.631 23.018-31.18 40.648-40.648s37.71-14.202 60.238-14.202zM3142.778 499.623c-24.821 0-48.818-3.102-71.992-9.305-22.862-5.877-41.962-14.856-57.299-26.936l30.364-54.851c11.097 9.141 25.133 16.325 42.118 21.549 17.297 5.551 34.282 8.326 50.933 8.326 27.091 0 46.681-6.040 58.769-18.12 12.399-12.080 18.61-30.038 18.61-53.871v-39.669l4.897-66.115-0.979-66.605v-56.81h72.481v219.403c0 48.974-12.733 85.051-38.2 108.232s-62.041 34.771-109.702 34.771zM3131.025 387.962c-24.487 0-46.692-5.224-66.605-15.672-19.59-10.774-35.428-25.63-47.505-44.566-11.754-19.263-17.631-41.628-17.631-67.094 0-25.793 5.877-48.158 17.631-67.094 12.077-19.263 27.915-34.118 47.505-44.566 19.912-10.448 42.118-15.672 66.605-15.672 22.194 0 41.784 4.571 58.769 13.713 16.974 8.815 30.197 22.692 39.669 41.628 9.461 18.61 14.202 42.607 14.202 71.992 0 29.058-4.742 53.055-14.202 71.992-9.472 18.61-22.695 32.486-39.669 41.628-16.985 9.141-36.575 13.713-58.769 13.713zM3146.207 325.276c13.379 0 25.299-2.612 35.751-7.836 10.44-5.551 18.61-13.223 24.487-23.018s8.815-21.059 8.815-33.792c0-13.059-2.938-24.323-8.815-33.792-5.877-9.795-14.047-17.304-24.487-22.528-10.451-5.551-22.372-8.326-35.751-8.326-13.39 0-25.311 2.775-35.751 8.326-10.451 5.224-18.777 12.733-24.977 22.528-5.877 9.469-8.815 20.733-8.815 33.792 0 12.733 2.938 23.997 8.815 33.792 6.2 9.795 14.525 17.467 24.977 23.018 10.44 5.224 22.361 7.836 35.751 7.836z"></path>
<path fill="var(--logo-color, #fff)" d="M741.255 1022.060c-19.876 0.25-20.225-18.031-17.936-27.203l2.639-6.167h10.367l-3.466 6.167c-8.173 14.368 1.972 21.224 8.396 20.567 15.137-0.815 12.211-15.057 8.555-20.567l-5.089-4.853h12.339l1.971 4.853c6.584 20.348-9.095 26.608-17.776 27.203zM202.033 922.482c-19.113-3.757-15.583-21.725-11.416-30.209l3.816-5.478 9.954 2.097-4.611 5.323c-10.876 12.427-2.608 21.13 3.69 21.819 14.692 2.254 14.915-12.271 12.561-18.376l-3.848-5.791 11.831 2.504 0.858 5.166c2.003 21.225-14.374 24.199-22.802 23.009l-0.031-0.062zM55.906 840.151c-16.219-9.235-7.537-24.23-1.177-30.553l5.152-3.725 8.396 4.914-5.82 3.35c-13.675 7.763-8.809 18.125-3.275 20.66 12.657 6.542 17.3-6.386 17.014-12.584l-1.749-6.354 9.986 5.853-0.795 4.884c-4.643 19.596-20.416 17.217-27.731 13.555zM905.572 1023.688c-19.877 0.25-20.226-18.031-17.937-27.204l2.64-6.167h10.367l-3.466 6.167c-8.173 14.368 1.971 21.225 8.396 20.567 15.137-0.814 12.243-15.057 8.554-20.567l-5.088-4.852h12.339l1.971 4.852c6.583 20.348-9.095 26.608-17.776 27.204z"></path>
<path fill="var(--logo-color, #fff)" d="M942.146 982.554c38.416-19.816 41.883-47.458 38.83-58.79-1.050-16.466-20.29-14.964-29.766-12.146-10.908 2.19-26.268 2.848-32.564 2.911-7.251-1.283-60.2 0.157-60.041 0l12.021-14.087c16.855-0.908 43.854 1.252 55.27 2.442 10.113 0.741 20.271-0.69 29.766-4.195 33.169-7.263 40.897 13.712 40.642 25.106 2.894 29.802-20.829 53.875-33.073 62.17-8.3 6.355-29.129 9.33-38.479 10.050h-35.872l-147.24-0.971c-19.749-0.532-18.763 0-18.763 0-5.533 0-17.776-1.409-23.182-2.098-10.147-1.543-19.652-5.849-27.441-12.432s-13.552-15.181-16.637-24.82c-7.504-26.829 10.464-47.865 20.385-55.064 11.067-8.045 31.706-5.385 40.642-3.069 6.329 1.691 19.304 5.009 24.996 6.48 5.915 0.908 52.695-0.375 75.337-1.126l-7.41 13.273h-69.74c-6.202 0-14.533-2.817-17.937-4.195-31.451-15.684-46.556 4.038-50.182 15.871-13.42 35.375 27.857 52.31 50.182 56.348h112.513c22.102 0.376 81.093 1.096 107.743-1.658zM249.896 898.501c39.975-1.126 49.102-21.037 52.472-32.211 2.481-22.822-4.452-31.587-15.297-36.439-13.006-7.137-33.169-7.42-38.32-10.361-6.901-3.069-51.551-28.425-51.328-28.487 0.159-0.062 1.464-11.646 7.060-13.774 14.152 7.2 49.928 26.921 58.578 33.37 26.809 5.197 16.949 3.224 29.607 6.323 30.688 9.517 27.189 49.273 21.052 58.947-13.102 26.985-25.155 28.173-51.995 34.81-20.735 2.755-30.879-0.814-38.861-4.665l-31.706-15.746-60.041-34.497-30.593-17.813-15.137-8.577-13.643-8.921c-15.742-9.83-15.296-11.489-15.296-11.489-4.484-2.63-10.431-10.518-13.993-14.901-17.109-21.037-17.109-40.32-17.109-50.462 6.106-26.453 28.144-39.569 44.744-40.038 13.134-1.66 31.96 9.454 38.003 15.715 4.262 4.444 13.579 11.926 17.427 15.871 4.325 3.6 22.197 11.613 40.96 21.694l-5.088 13.93-43.441-25.576c-5.651-3.258-10.756-7.354-15.137-12.146-20.575-24.95-39.815-17.969-50.341-7.608-27.031 24.762-4.611 58.289 11.894 74.16l91.333 53.406c17.745 10.831 74.129 47.175 94.195 45.547v-0.062z"></path>
<path fill="var(--logo-color, #fff)" d="M729.748 937.539c0-2.316 1.653-2.692 2.48-2.567 2.767 0 3.466 1.721 3.466 2.567 0 2.724-2.29 3.287-3.466 3.224-2.099 0-2.512-2.16-2.48-3.224zM730.416 955.664c0-2.316 1.653-2.692 2.48-2.567 2.767 0 3.466 1.722 3.466 2.567 0 2.724-2.29 3.287-3.466 3.224-2.099 0-2.512-2.16-2.48-3.224zM748.828 955.038c0-2.317 1.654-2.692 2.481-2.568 2.767 0 3.466 1.722 3.466 2.568 0 2.724-2.29 3.287-3.466 3.224-2.099 0-2.512-2.16-2.481-3.224zM748.192 938.195c0-2.316 1.654-2.691 2.48-2.567 2.767 0 3.467 1.722 3.467 2.567 0 2.724-2.29 3.288-3.467 3.224-2.098 0-2.512-2.159-2.48-3.224zM93.532 758.603c1.367-1.909 2.926-1.283 3.53-0.72 2.258 1.566 1.813 3.35 1.336 4.070-1.59 2.223-3.784 1.377-4.707 0.688-1.717-1.189-0.827-3.192-0.159-4.038zM83.482 773.848c1.367-1.909 2.926-1.283 3.53-0.72 2.258 1.566 1.813 3.35 1.336 4.070-1.59 2.222-3.784 1.377-4.707 0.688-1.717-1.189-0.827-3.192-0.159-4.038zM98.938 783.709c1.367-1.91 2.926-1.284 3.53-0.72 2.258 1.565 1.813 3.349 1.336 4.069-1.59 2.223-3.784 1.377-4.707 0.689-1.717-1.19-0.827-3.193-0.159-4.038zM108.224 769.559c1.367-1.91 2.926-1.283 3.53-0.72 2.257 1.565 1.812 3.35 1.336 4.069-1.591 2.223-3.785 1.378-4.707 0.689-1.717-1.19-0.827-3.193-0.159-4.038zM235.175 866.134c1.367-1.91 2.925-1.283 3.529-0.72 2.258 1.565 1.813 3.349 1.336 4.069-1.591 2.223-3.784 1.378-4.707 0.689-1.716-1.19-0.826-3.193-0.158-4.038zM243.443 845.348c1.368-1.91 2.926-1.283 3.531-0.72 2.257 1.565 1.812 3.349 1.336 4.069-1.591 2.223-3.784 1.378-4.707 0.689-1.717-1.19-0.827-3.193-0.159-4.038zM916.644 932.342c0-2.316 1.654-2.692 2.48-2.567 2.767 0 3.467 1.722 3.467 2.567 0 2.724-2.29 3.287-3.467 3.224-2.098 0-2.512-2.16-2.48-3.224zM916.644 952.753c0-2.317 1.654-2.692 2.48-2.568 2.767 0 3.467 1.722 3.467 2.568 0 2.723-2.29 3.287-3.467 3.223-2.098 0-2.512-2.159-2.48-3.223zM737.983 1002.621c0-1.816 1.972-2.599 2.958-2.755 2.384 0 2.957 1.847 2.957 2.755 0 2.473-1.972 2.974-2.957 2.911-2.513 0-3.022-1.94-2.958-2.911zM202.674 905.953c0-1.816 1.971-2.599 2.957-2.755 2.353 0 2.957 1.847 2.957 2.755 0 2.473-1.972 2.974-2.957 2.911-2.512 0-3.022-1.94-2.957-2.911zM61.19 825.313c0-1.816 1.972-2.599 2.957-2.755 2.385 0 2.957 1.847 2.957 2.755 0 2.473-1.972 2.974-2.957 2.911-2.512 0-3.021-1.94-2.957-2.911zM902.81 1005.062c0-1.815 1.972-2.598 2.957-2.755 2.385 0 2.958 1.848 2.958 2.755 0 2.473-1.972 2.974-2.958 2.912-2.512 0-3.021-1.941-2.957-2.912z"></path>
<path fill="var(--logo-color, #fff)" d="M461.274 792.756c4.769 4.695 14.883 21.13 17.109 49.241-0.89 6.856-4.961 21.193-14.31 23.635-3.721 0.751-14.788-2.912-29.129-23.635-5.216-6.542-16.918-25.513-22.038-49.241-1.909-8.796-0.7-26.453 19.59-26.734 30.052-8.796 95.022-29.207 114.484-40.477 14.756-8.358 46.652-28.424 56.257-41.791 18.031-22.79 57.082-74.191 68.913-97.637 13.992-27.423 43.726-84.303 50.818-92.474 11.035-20.848 35.84-69.59 46.875-97.982 9.255-25.325 22.23-87.276 0-132.637-13.61-34.153-58.069-94.445-127.173-62.17-23.374 12.96-68.754 49.993-63.507 94.571 3.276 18.688 3.148 56.035-23.692 56.035-10.367 2.254-30.275-5.76-26.967-56.035 3.339-19.064 17.776-64.643 48.688-94.571 11.288-10.299 40.196-33.151 65.478-42.104 34.123-14.212 114.93-31.398 165.335 13.43 11.353 7.983 38.321 37.346 55.43 90.844 0.827-19.283 10.622-62.108 43.25-79.356 17.173-12.836 59.786-30.084 92.955 3.724 12.339 12.648 28.781 49.962-4.102 98.296-11.671 15.558-45.794 44.546-88.821 36.125l-17.778-5.009c-0.604 2.066-1.463 6.856 0 9.705l27.636 43.576c10.43 17.874 36.73 54.814 58.577 59.603 5.661 1.627 22.42 4.382 44.268 2.442 20.798-1.848 65.447-3.162 77.817 6.166 9.541 3.945 28.497 17.781 27.952 41.603-0.156 9.392-4.641 27.986-21.21 27.204-7.028-0.971-22.801-6.855-29.766-22.664l-7.41-13.273c-0.762-0.815-2.798-2.38-4.769-2.098h-42.614c-19.622 2.38-64.397 5.698-86.372 0-12.658-1.565-41.564-10.769-55.779-34.966-5.661-6.794-18.764-25.043-25.982-43.576-16.442 23.322-47.352 87.934-39.307 159.84-0.317 23.102 15.711 81.861 82.43 132.135 13.833 11.834 41.882 39.945 43.599 57.819 4.93 5.354 1.336 40.070-52.472 136.174l-34.377 49.712c14.692-5.76 46.748-13.055 57.402 4.038 10.208 16.403 5.343 8.796 1.176 2.285 5.247 8.828 4.897 26.702-35.903 33.997-17.014 0.876-56.066 0.093-76.324-9.893-1.653-4.257-1.526-18.125 12.18-39.506 21.37-38.097 64.144-117.641 64.144-130.852 2.702-9.893 0.541-35.593-29.607-59.415-18.699-10.894-59.024-37.941-70.726-58.79-7.569-10.894-23.597-34.622-27.158-42.261-11.13 15.12-37.78 48.647-55.27 61.857-27.54 22.601-87.867 69.151-109.078 74.317-17.809 8.921-57.783 26.921-75.019 27.704-9.223 1.034-31.261 3.069-45.731 3.069h0.032z"></path>
<path fill="var(--logo-color, #fff)" d="M130.29 37.318c39.751 25.92 40.897 70.81 36.508 90.032h2.48c26.332-26.045 56.034-38.818 67.61-41.948 61.726-19.565 106.662-12.897 121.417-7.137 50.15 8.421 90.857 44.546 104.944 61.545 37.239 40.288 41.277 82.643 38.67 98.765 0.922 37.189-22.325 61.168-34.059 68.493-21.18 11.27-29.449 0.689-30.943-5.978-3.944-18.282 1.653-28.55 4.929-31.43 6.964-13.335 9.031-31.679 9.223-39.192 0.127-32.244-22.865-57.695-34.377-66.397-22.896-22.664-64.716-30.177-82.747-31.085-58.037-3.224-87.008 33.402-94.258 52.154-19.877 46.111-11.13 116.703-4.294 146.222 12.753 77.353 20.226 95.698 22.389 95.229 16.949 41.791 65.637 93.443 71.394 103.805 4.61 8.296 43.376 45.141 62.171 62.515 0.668 2.473 32.183 31.586 47.861 45.83 8.427 6.855 27.73 20.035 36.349 25.764l20.384-18.627c5.469-4.691 11.986-8.046 19.020-9.793s14.388-1.833 21.464-0.256c10.526 6.105 11.416 18.188 10.526 23.479-13.834 34.591-52.027 54.783-69.423 60.574-13.038-0.532-36.794-13.931-47.034-20.567-9.858-2.442-93.591-76.446-95.403-76.446-1.463 0-61.25-64.142-90.984-96.198-1.591 3.506-0.668 9.33 0 11.834 0.668 2.347 5.756 18.563 8.237 26.389 3.944 12.835 5.375 36.971 5.597 47.457 1.048 27.454-4.072 62.734-6.743 76.916-0.795 5.947-15.455 36.375-22.706 50.838-0.922 2.066-20.797 36.907-30.592 54.094l-4.103 12.803c13.038-1.566 25.727 9.078 30.434 14.588 21.179 25.012 8.841 36.97 0 39.85-18.158 5.040-42.455-7.607-52.313-14.588-24.996-15.152-27.54-32.869-25.663-39.85 1.971-4.665 13.643-36.063 19.239-51.183 1.591-0.657 18.318-48.083 26.49-71.749 11.831-30.71 11.418-53.155 9.7-60.574-4.993-24.48-19.304-58.79-25.823-72.877-7.632-14.651-12.944-37.096-14.629-46.487-3.944-16.184 0.89-78.856 3.784-108.188 3.276-59.854-13.103-122.963-21.72-147.036-8.682 12.302-13.389 40.633-14.629 53.28-4.198 13.211-1.75 68.025 0 93.756 3.944 36.282 4.166 58.728 3.784 65.427-0.61 8.215-1.768 16.382-3.467 24.448-2.639 9.705-12.275 28.55-16.79 36.752-5.407 12.553-15.965 14.838-20.576 14.399-12.625 0.126-16.568-11.488-16.95-17.311-0.382-19.565 13.547-35.467 20.575-40.977 5.533-6.074 5.692-18.627 5.088-24.136-21.72-52.466-29.766-123.464-31.102-152.389-1.717-23.572 4.77-49.242 8.237-59.103 9.095-32.651 27.476-57.225 35.522-65.426v-2.442c-55.016 7.387-84.114-28.862-91.81-47.928-18.286-40.82-3.88-69.026 5.597-78.041 35.808-42.104 83.892-25.544 103.481-11.99l0.032 0.094z"></path>
</svg>
