<svg xmlns="http://www.w3.org/2000/svg" viewBox="0 0 205 32" width="205" height="32" aria-label="Pushing Together">
<path fill="var(--logo-color, #fff)" d="M45.861 22.4v-11.947h5.171c1.069 0 1.991 0.176 2.765 0.529 0.774 0.341 1.371 0.836 1.792 1.485s0.631 1.422 0.631 2.321c0 0.887-0.211 1.655-0.631 2.304s-1.018 1.149-1.792 1.502c-0.774 0.341-1.695 0.512-2.765 0.512h-3.635l1.229-1.246v4.54h-2.765zM48.626 18.167l-1.229-1.314h3.482c0.853 0 1.49-0.182 1.911-0.546s0.631-0.87 0.631-1.519c0-0.66-0.211-1.172-0.631-1.536s-1.058-0.546-1.911-0.546h-3.482l1.229-1.314v6.775zM62.047 22.537c-0.762 0-1.445-0.148-2.048-0.444-0.592-0.296-1.052-0.745-1.382-1.348-0.33-0.614-0.495-1.394-0.495-2.338v-5.188h2.662v4.796c0 0.762 0.159 1.326 0.478 1.69 0.33 0.353 0.791 0.529 1.382 0.529 0.41 0 0.774-0.085 1.092-0.256 0.319-0.182 0.569-0.455 0.751-0.819 0.182-0.375 0.273-0.842 0.273-1.399v-4.54h2.662v9.182h-2.526v-2.526l0.461 0.734c-0.307 0.637-0.762 1.121-1.365 1.451-0.592 0.319-1.24 0.478-1.946 0.478zM72.979 22.537c-0.785 0-1.542-0.091-2.27-0.273-0.717-0.193-1.286-0.432-1.707-0.717l0.887-1.911c0.421 0.262 0.916 0.478 1.485 0.649 0.58 0.159 1.149 0.239 1.707 0.239 0.614 0 1.047-0.074 1.297-0.222 0.262-0.148 0.393-0.353 0.393-0.614 0-0.216-0.102-0.375-0.307-0.478-0.193-0.114-0.455-0.199-0.785-0.256s-0.694-0.114-1.092-0.171c-0.387-0.057-0.779-0.131-1.178-0.222c-0.398-0.102-0.762-0.25-1.092-0.444s-0.597-0.455-0.802-0.785c-0.193-0.33-0.29-0.757-0.29-1.28 0-0.58 0.165-1.092 0.495-1.536 0.341-0.444 0.831-0.791 1.468-1.041 0.637-0.262 1.399-0.393 2.287-0.393 0.626 0 1.263 0.068 1.911 0.205s1.189 0.336 1.621 0.597l-0.887 1.894c-0.444-0.262-0.893-0.438-1.348-0.529-0.444-0.102-0.876-0.154-1.297-0.154-0.592 0-1.024 0.080-1.297 0.239s-0.41 0.364-0.41 0.614c0 0.228 0.097 0.398 0.29 0.512 0.205 0.114 0.472 0.205 0.802 0.273s0.688 0.131 1.075 0.188c0.398 0.046 0.796 0.119 1.195 0.222s0.757 0.25 1.075 0.444c0.33 0.182 0.597 0.438 0.802 0.768 0.205 0.319 0.307 0.74 0.307 1.263 0 0.569-0.171 1.075-0.512 1.519-0.341 0.432-0.836 0.774-1.485 1.024-0.637 0.25-1.417 0.375-2.338 0.375zM84.537 13.082c0.728 0 1.377 0.148 1.946 0.444 0.58 0.284 1.035 0.728 1.365 1.331 0.33 0.592 0.495 1.354 0.495 2.287v5.257h-2.662v-4.847c0-0.74-0.165-1.286-0.495-1.638-0.319-0.353-0.774-0.529-1.365-0.529-0.421 0-0.802 0.091-1.143 0.273-0.33 0.171-0.592 0.438-0.785 0.802-0.182 0.364-0.273 0.831-0.273 1.399v4.54h-2.662v-12.663h2.662v6.025l-0.597-0.768c0.33-0.614 0.802-1.087 1.417-1.417s1.314-0.495 2.099-0.495zM90.757 22.4v-9.182h2.662v9.182h-2.662zM92.088 11.938c-0.489 0-0.887-0.142-1.195-0.427s-0.461-0.637-0.461-1.058c0-0.421 0.154-0.774 0.461-1.058s0.705-0.427 1.195-0.427c0.489 0 0.887 0.137 1.195 0.41 0.307 0.262 0.461 0.603 0.461 1.024 0 0.444-0.154 0.813-0.461 1.109-0.296 0.284-0.694 0.427-1.195 0.427zM101.471 13.082c0.728 0 1.377 0.148 1.946 0.444 0.58 0.284 1.035 0.728 1.365 1.331 0.33 0.592 0.495 1.354 0.495 2.287v5.257h-2.662v-4.847c0-0.74-0.165-1.286-0.495-1.638-0.319-0.353-0.774-0.529-1.365-0.529-0.421 0-0.802 0.091-1.143 0.273-0.33 0.171-0.592 0.438-0.785 0.802-0.182 0.364-0.273 0.831-0.273 1.399v4.54h-2.662v-9.182h2.543v2.543l-0.478-0.768c0.33-0.614 0.802-1.087 1.417-1.417s1.314-0.495 2.099-0.495zM112.074 25.847c-0.865 0-1.701-0.108-2.509-0.324-0.796-0.205-1.462-0.518-1.997-0.939l1.058-1.911c0.387 0.319 0.876 0.569 1.468 0.751 0.603 0.193 1.195 0.29 1.775 0.29 0.944 0 1.627-0.21 2.048-0.631 0.432-0.421 0.649-1.047 0.649-1.877v-1.382l0.171-2.304-0.034-2.321v-1.98h2.526v7.646c0 1.707-0.444 2.964-1.331 3.772s-2.162 1.212-3.823 1.212zM111.665 21.956c-0.853 0-1.627-0.182-2.321-0.546-0.683-0.375-1.234-0.893-1.655-1.553-0.41-0.671-0.614-1.451-0.614-2.338 0-0.899 0.205-1.678 0.614-2.338 0.421-0.671 0.973-1.189 1.655-1.553 0.694-0.364 1.468-0.546 2.321-0.546 0.774 0 1.456 0.159 2.048 0.478 0.592 0.307 1.052 0.791 1.382 1.451 0.33 0.649 0.495 1.485 0.495 2.509 0 1.013-0.165 1.849-0.495 2.509-0.33 0.649-0.791 1.132-1.382 1.451s-1.274 0.478-2.048 0.478zM112.194 19.772c0.466 0 0.882-0.091 1.246-0.273 0.364-0.193 0.649-0.461 0.853-0.802s0.307-0.734 0.307-1.178c0-0.455-0.102-0.848-0.307-1.178-0.205-0.341-0.489-0.603-0.853-0.785-0.364-0.193-0.779-0.29-1.246-0.29s-0.882 0.097-1.246 0.29c-0.364 0.182-0.654 0.444-0.87 0.785-0.205 0.33-0.307 0.723-0.307 1.178 0 0.444 0.102 0.836 0.307 1.178 0.216 0.341 0.506 0.609 0.87 0.802 0.364 0.182 0.779 0.273 1.246 0.273zM127.203 22.4v-9.694h-3.823v-2.253h10.411v2.253h-3.823v9.694h-2.765zM138.525 22.537c-0.978 0-1.849-0.205-2.611-0.614-0.751-0.41-1.348-0.967-1.792-1.673-0.432-0.717-0.649-1.53-0.649-2.441 0-0.922 0.216-1.735 0.649-2.441 0.444-0.717 1.041-1.274 1.792-1.673 0.762-0.41 1.633-0.614 2.611-0.614 0.967 0 1.832 0.205 2.594 0.614 0.762 0.398 1.36 0.95 1.792 1.655s0.649 1.525 0.649 2.458c0 0.91-0.216 1.724-0.649 2.441-0.432 0.705-1.030 1.263-1.792 1.673s-1.627 0.614-2.594 0.614zM138.525 20.352c0.444 0 0.842-0.102 1.195-0.307s0.631-0.495 0.836-0.87c0.205-0.387 0.307-0.842 0.307-1.365 0-0.535-0.102-0.99-0.307-1.365s-0.484-0.666-0.836-0.87c-0.353-0.205-0.751-0.307-1.195-0.307s-0.842 0.102-1.195 0.307c-0.353 0.205-0.637 0.495-0.853 0.87-0.205 0.375-0.307 0.831-0.307 1.365 0 0.523 0.102 0.979 0.307 1.365 0.216 0.375 0.501 0.666 0.853 0.87s0.751 0.307 1.195 0.307zM149.658 25.847c-0.865 0-1.701-0.108-2.509-0.324-0.796-0.205-1.462-0.518-1.997-0.939l1.058-1.911c0.387 0.319 0.876 0.569 1.468 0.751 0.603 0.193 1.195 0.29 1.775 0.29 0.944 0 1.627-0.21 2.048-0.631 0.432-0.421 0.649-1.047 0.649-1.877v-1.382l0.171-2.304-0.034-2.321v-1.98h2.526v7.646c0 1.707-0.444 2.964-1.331 3.772s-2.162 1.212-3.823 1.212zM149.248 21.956c-0.853 0-1.627-0.182-2.321-0.546-0.683-0.375-1.234-0.893-1.655-1.553-0.41-0.671-0.614-1.451-0.614-2.338 0-0.899 0.205-1.678 0.614-2.338 0.421-0.671 0.973-1.189 1.655-1.553 0.694-0.364 1.468-0.546 2.321-0.546 0.774 0 1.456 0.159 2.048 0.478 0.592 0.307 1.052 0.791 1.382 1.451 0.33 0.649 0.495 1.485 0.495 2.509 0 1.013-0.165 1.849-0.495 2.509-0.33 0.649-0.791 1.132-1.382 1.451s-1.274 0.478-2.048 0.478zM149.777 19.772c0.466 0 0.882-0.091 1.246-0.273 0.364-0.193 0.649-0.461 0.853-0.802s0.307-0.734 0.307-1.178c0-0.455-0.102-0.848-0.307-1.178-0.205-0.341-0.489-0.603-0.853-0.785-0.364-0.193-0.779-0.29-1.246-0.29s-0.882 0.097-1.246 0.29c-0.364 0.182-0.654 0.444-0.87 0.785-0.205 0.33-0.307 0.723-0.307 1.178 0 0.444 0.102 0.836 0.307 1.178 0.216 0.341 0.506 0.609 0.87 0.802 0.364 0.182 0.779 0.273 1.246 0.273zM161.847 22.537c-1.047 0-1.968-0.205-2.765-0.614-0.785-0.41-1.394-0.967-1.826-1.673-0.432-0.717-0.649-1.53-0.649-2.441 0-0.922 0.21-1.735 0.631-2.441 0.432-0.717 1.018-1.274 1.758-1.673 0.74-0.41 1.576-0.614 2.509-0.614 0.899 0 1.707 0.193 2.423 0.58 0.728 0.375 1.303 0.922 1.724 1.638 0.421 0.705 0.631 1.553 0.631 2.543 0 0.102-0.006 0.222-0.017 0.358-0.011 0.125-0.023 0.245-0.034 0.358h-7.458v-1.553h6.059l-1.024 0.461c0-0.478-0.097-0.893-0.29-1.246s-0.461-0.626-0.802-0.819c-0.341-0.205-0.74-0.307-1.195-0.307s-0.859 0.102-1.212 0.307c-0.341 0.193-0.609 0.472-0.802 0.836-0.193 0.353-0.29 0.774-0.29 1.263v0.41c0 0.501 0.108 0.944 0.324 1.331 0.228 0.375 0.54 0.666 0.939 0.87 0.41 0.193 0.887 0.29 1.434 0.29 0.489 0 0.916-0.074 1.28-0.222 0.375-0.148 0.717-0.37 1.024-0.666l1.417 1.536c-0.421 0.478-0.95 0.848-1.587 1.109-0.637 0.25-1.371 0.375-2.202 0.375zM171.811 22.537c-1.081 0-1.923-0.273-2.526-0.819-0.603-0.558-0.905-1.382-0.905-2.475v-8.055h2.662v8.021c0 0.387 0.102 0.688 0.307 0.905 0.205 0.205 0.484 0.307 0.836 0.307 0.421 0 0.779-0.114 1.075-0.341l0.717 1.877c-0.273 0.193-0.603 0.341-0.99 0.444-0.375 0.091-0.768 0.137-1.178 0.137zM166.964 15.471v-2.048h6.366v2.048h-6.366zM181.054 13.082c0.728 0 1.377 0.148 1.946 0.444 0.58 0.284 1.035 0.728 1.365 1.331 0.33 0.592 0.495 1.354 0.495 2.287v5.257h-2.662v-4.847c0-0.74-0.165-1.286-0.495-1.638-0.319-0.353-0.774-0.529-1.365-0.529-0.421 0-0.802 0.091-1.143 0.273-0.33 0.171-0.592 0.438-0.785 0.802-0.182 0.364-0.273 0.831-0.273 1.399v4.54h-2.662v-12.663h2.662v6.025l-0.597-0.768c0.33-0.614 0.802-1.087 1.417-1.417s1.314-0.495 2.099-0.495zM191.897 22.537c-1.047 0-1.968-0.205-2.765-0.614-0.785-0.41-1.394-0.967-1.826-1.673-0.432-0.717-0.649-1.53-0.649-2.441 0-0.922 0.21-1.735 0.631-2.441 0.432-0.717 1.018-1.274 1.758-1.673 0.74-0.41 1.576-0.614 2.509-0.614 0.899 0 1.707 0.193 2.423 0.58 0.728 0.375 1.303 0.922 1.724 1.638 0.421 0.705 0.631 1.553 0.631 2.543 0 0.102-0.006 0.222-0.017 0.358-0.011 0.125-0.023 0.245-0.034 0.358h-7.458v-1.553h6.058l-1.024 0.461c0-0.478-0.097-0.893-0.29-1.246s-0.461-0.626-0.802-0.819c-0.341-0.205-0.74-0.307-1.195-0.307s-0.859 0.102-1.212 0.307c-0.341 0.193-0.609 0.472-0.802 0.836-0.193 0.353-0.29 0.774-0.29 1.263v0.41c0 0.501 0.108 0.944 0.324 1.331 0.228 0.375 0.54 0.666 0.939 0.87 0.41 0.193 0.887 0.29 1.434 0.29 0.489 0 0.916-0.074 1.28-0.222 0.375-0.148 0.717-0.37 1.024-0.666l1.417 1.536c-0.421 0.478-0.95 0.848-1.587 1.109-0.637 0.25-1.371 0.375-2.202 0.375zM198.107 22.4v-9.182h2.543v2.594l-0.358-0.751c0.273-0.649 0.711-1.138 1.314-1.468 0.603-0.341 1.337-0.512 2.202-0.512v2.458c-0.114-0.011-0.216-0.017-0.307-0.017-0.091-0.011-0.188-0.017-0.29-0.017-0.728 0-1.32 0.21-1.775 0.631-0.444 0.41-0.666 1.052-0.666 1.929v4.335h-2.662z"/>
<path fill="var(--logo-color, #fff)" d="M23.679 31.938c-0.635 0.008-0.646-0.576-0.573-0.869l0.084-0.197h0.331l-0.111 0.197c-0.261 0.459 0.063 0.678 0.268 0.657 0.484-0.026 0.39-0.481 0.273-0.657l-0.163-0.155h0.394l0.063 0.155c0.21 0.65-0.291 0.85-0.568 0.869zM6.454 28.757c-0.611-0.12-0.498-0.694-0.365-0.965l0.122-0.175 0.318 0.067-0.147 0.17c-0.347 0.397-0.083 0.675 0.118 0.697 0.469 0.072 0.476-0.392 0.401-0.587l-0.123-0.185 0.378 0.080 0.027 0.165c0.064 0.678-0.459 0.773-0.728 0.735zM1.786 26.127c-0.518-0.295-0.241-0.774-0.038-0.976l0.165-0.119 0.268 0.157-0.186 0.107c-0.437 0.248-0.281 0.579-0.105 0.66 0.404 0.209 0.553-0.204 0.543-0.402l-0.056-0.203 0.319 0.187-0.025 0.156c-0.148 0.626-0.652 0.55-0.886 0.433zM28.928 31.99c-0.635 0.008-0.646-0.576-0.573-0.869l0.084-0.197h0.331l-0.111 0.197c-0.261 0.459 0.063 0.678 0.268 0.657 0.484-0.026 0.391-0.481 0.273-0.657l-0.163-0.155h0.394l0.063 0.155c0.21 0.65-0.291 0.85-0.568 0.869z"/>
<path fill="var(--logo-color, #fff)" d="M30.096 30.676c1.227-0.633 1.338-1.516 1.24-1.878-0.034-0.526-0.648-0.478-0.951-0.388-0.348 0.070-0.839 0.091-1.040 0.093-0.232-0.041-1.923 0.005-1.918 0l0.384-0.45c0.538-0.029 1.401 0.040 1.766 0.078 0.323 0.024 0.648-0.022 0.951-0.134 1.060-0.232 1.306 0.438 1.298 0.802 0.092 0.952-0.665 1.721-1.056 1.986-0.265 0.203-0.931 0.298-1.229 0.321h-1.146l-4.704-0.031c-0.631-0.017-0.599 0-0.599 0-0.177 0-0.568-0.045-0.741-0.067-0.324-0.049-0.628-0.187-0.877-0.397s-0.433-0.485-0.531-0.793c-0.24-0.857 0.334-1.529 0.651-1.759 0.354-0.257 1.013-0.172 1.298-0.098 0.202 0.054 0.617 0.16 0.798 0.207 0.189 0.029 1.683-0.012 2.407-0.036l-0.237 0.424h-2.228c-0.198 0-0.464-0.090-0.573-0.134-1.005-0.501-1.487 0.129-1.603 0.507-0.429 1.13 0.89 1.671 1.603 1.8h3.594c0.706 0.012 2.59 0.035 3.442-0.053zM7.983 27.991c1.277-0.036 1.569-0.672 1.676-1.029 0.079-0.729-0.142-1.009-0.489-1.164-0.415-0.228-1.060-0.237-1.224-0.331-0.22-0.098-1.647-0.908-1.64-0.91 0.005-0.002 0.047-0.372 0.226-0.44 0.452 0.23 1.595 0.86 1.871 1.066 0.856 0.166 0.541 0.103 0.946 0.202 0.98 0.304 0.869 1.574 0.672 1.883-0.419 0.862-0.804 0.9-1.661 1.112-0.662 0.088-0.986-0.026-1.241-0.149l-1.013-0.503-1.918-1.102-0.977-0.569-0.484-0.274-0.436-0.285c-0.503-0.314-0.489-0.367-0.489-0.367-0.143-0.084-0.333-0.336-0.447-0.476-0.547-0.672-0.547-1.288-0.547-1.612 0.195-0.845 0.899-1.264 1.429-1.279 0.42-0.053 1.021 0.302 1.214 0.502 0.136 0.142 0.434 0.381 0.557 0.507 0.138 0.115 0.709 0.371 1.308 0.693l-0.163 0.445-1.388-0.817c-0.18-0.104-0.344-0.235-0.484-0.388-0.657-0.797-1.272-0.574-1.608-0.243-0.864 0.791-0.147 1.862 0.38 2.369l2.918 1.706c0.567 0.346 2.368 1.507 3.009 1.455z"/>
<path fill="var(--logo-color, #fff)" d="M14.735 24.613c0.152 0.15 0.475 0.675 0.547 1.573-0.028 0.219-0.158 0.677-0.457 0.755-0.119 0.024-0.472-0.093-0.931-0.755-0.167-0.209-0.54-0.815-0.704-1.573-0.061-0.281-0.022-0.845 0.626-0.854 0.96-0.281 3.035-0.933 3.657-1.293 0.471-0.267 1.49-0.908 1.797-1.335 0.576-0.728 1.823-2.37 2.201-3.119 0.447-0.876 1.397-2.693 1.623-2.954 0.352-0.666 1.145-2.223 1.497-3.13 0.296-0.809 0.71-2.788 0-4.237-0.435-1.091-1.855-3.017-4.062-1.986-0.747 0.414-2.196 1.597-2.029 3.021 0.105 0.597 0.101 1.79-0.757 1.79-0.331 0.072-0.967-0.184-0.861-1.79 0.107-0.609 0.568-2.065 1.555-3.021 0.361-0.329 1.284-1.059 2.092-1.345 1.090-0.454 3.671-1.003 5.282 0.429 0.363 0.255 1.224 1.193 1.771 2.902 0.026-0.616 0.339-1.984 1.382-2.535 0.549-0.41 1.91-0.961 2.969 0.119 0.394 0.404 0.919 1.596-0.131 3.14-0.373 0.497-1.463 1.423-2.837 1.154l-0.568-0.16c-0.019 0.066-0.047 0.219 0 0.31l0.883 1.392c0.333 0.571 1.173 1.751 1.871 1.904 0.181 0.052 0.716 0.14 1.414 0.078 0.664-0.059 2.091-0.101 2.486 0.197 0.305 0.126 0.91 0.568 0.893 1.329-0.005 0.3-0.148 0.894-0.678 0.869-0.224-0.031-0.728-0.219-0.951-0.724l-0.237-0.424c-0.024-0.026-0.089-0.076-0.152-0.067h-1.361c-0.627 0.076-2.057 0.182-2.759 0-0.404-0.050-1.328-0.344-1.782-1.117-0.181-0.217-0.599-0.8-0.83-1.392-0.525 0.745-1.513 2.809-1.256 5.106-0.010 0.738 0.502 2.615 2.633 4.221 0.442 0.378 1.338 1.276 1.393 1.847 0.157 0.171 0.043 1.28-1.676 4.35l-1.098 1.588c0.469-0.184 1.493-0.417 1.834 0.129 0.326 0.524 0.171 0.281 0.038 0.073 0.168 0.282 0.156 0.853-1.147 1.086-0.544 0.028-1.791 0.003-2.438-0.316-0.053-0.136-0.049-0.579 0.389-1.262 0.683-1.217 2.049-3.758 2.049-4.18 0.086-0.316 0.017-1.137-0.946-1.898-0.597-0.348-1.885-1.212-2.259-1.878-0.242-0.348-0.754-1.106-0.868-1.35-0.356 0.483-1.207 1.554-1.766 1.976-0.88 0.722-2.807 2.209-3.484 2.374-0.569 0.285-1.846 0.86-2.396 0.885-0.295 0.033-0.999 0.098-1.461 0.098z"/>
<path fill="var(--logo-color, #fff)" d="M4.162 0.481c1.27 0.828 1.306 2.262 1.166 2.876h0.079c0.841-0.832 1.79-1.24 2.16-1.34 1.972-0.625 3.407-0.412 3.879-0.228 1.602 0.269 2.902 1.423 3.352 1.966 1.19 1.287 1.319 2.64 1.235 3.155 0.029 1.188-0.713 1.954-1.088 2.188-0.677 0.36-0.941 0.022-0.988-0.191-0.126-0.584 0.053-0.912 0.157-1.004 0.222-0.426 0.288-1.012 0.295-1.252 0.004-1.030-0.73-1.843-1.098-2.121-0.731-0.724-2.067-0.964-2.643-0.993-1.854-0.103-2.779 1.067-3.011 1.666-0.635 1.473-0.356 3.728-0.137 4.671 0.407 2.471 0.646 3.057 0.715 3.042 0.541 1.335 2.097 2.985 2.281 3.316 0.147 0.265 1.386 1.442 1.986 1.997 0.021 0.079 1.028 1.009 1.529 1.464 0.269 0.219 0.886 0.64 1.161 0.823l0.651-0.595c0.175-0.15 0.383-0.257 0.608-0.313s0.46-0.059 0.686-0.008c0.336 0.195 0.365 0.581 0.336 0.75-0.442 1.105-1.662 1.75-2.218 1.935-0.416-0.017-1.175-0.445-1.502-0.657-0.315-0.078-2.99-2.442-3.048-2.442-0.047 0-1.957-2.049-2.906-3.073-0.051 0.112-0.021 0.298 0 0.378 0.021 0.075 0.184 0.593 0.263 0.843 0.126 0.41 0.172 1.181 0.179 1.516 0.034 0.877-0.13 2.004-0.215 2.457-0.025 0.19-0.494 1.162-0.725 1.624-0.029 0.066-0.664 1.179-0.977 1.728l-0.131 0.409c0.417-0.050 0.822 0.29 0.972 0.466 0.677 0.799 0.282 1.181 0 1.273-0.58 0.161-1.356-0.243-1.671-0.466-0.798-0.484-0.88-1.050-0.82-1.273 0.063-0.149 0.436-1.152 0.615-1.635 0.051-0.021 0.585-1.536 0.846-2.292 0.378-0.981 0.365-1.698 0.31-1.935-0.16-0.782-0.617-1.878-0.825-2.328-0.244-0.468-0.413-1.185-0.467-1.485-0.126-0.517 0.028-2.519 0.121-3.456 0.105-1.912-0.419-3.928-0.694-4.697-0.277 0.393-0.428 1.298-0.467 1.702-0.134 0.422-0.056 2.173 0 2.995 0.126 1.159 0.133 1.876 0.121 2.090-0.019 0.262-0.056 0.523-0.111 0.781-0.084 0.31-0.392 0.912-0.536 1.174-0.173 0.401-0.51 0.474-0.657 0.46-0.403 0.004-0.529-0.367-0.541-0.553-0.012-0.625 0.433-1.133 0.657-1.309 0.177-0.194 0.182-0.595 0.163-0.771-0.694-1.676-0.951-3.944-0.994-4.868-0.055-0.753 0.152-1.573 0.263-1.888 0.291-1.043 0.878-1.828 1.135-2.090v-0.078c-1.757 0.236-2.687-0.922-2.933-1.531-0.584-1.304-0.124-2.205 0.179-2.493 1.144-1.345 2.68-0.816 3.306-0.383z"/>
</svg>
