<svg width="535" height="134" viewBox="0 0 535 134" fill="none" xmlns="http://www.w3.org/2000/svg">
<path fill-rule="evenodd" clip-rule="evenodd" d="M38.8996 82.8C58.9996 82.8 72.3996 74.3 72.3996 57.3V57.1C72.3996 41.6 60.5996 35.4 41.4996 31.3C29.9996 28.7 27.1996 27 27.1996 23.3V23.1C27.1996 20.1 29.8996 17.8 35.4996 17.8C41.0996 17.8 47.3996 19.5 53.3996 22.7C54.5996 24.6 55.5996 26.2 56.9996 28.6L70.1996 9.8C61.1996 2.6 50.1996 0.199997 36.0996 0.199997C21.9996 0.199997 3.99961 9.9 3.99961 25.3V25.5C3.99961 42.5 17.5996 47.5 35.1996 51.5C46.3996 54.1 49.1996 56 49.1996 59.4V59.6C49.1996 63.2 45.8996 65.3 39.6996 65.3C33.4996 65.3 24.6996 63.1 17.9996 58.9C17.0996 57.2 15.8996 54.9 14.6996 52.8L0.0996094 70.6C10.2996 79.7 24.1996 82.8 38.8996 82.8ZM75.0996 82.9H101.7V76.7L105.1 68.1H137.1L140.6 76.7V82.9H167.8L135.2 6.3V0.0999985H107.8V6.4L75.1996 83L75.0996 82.9ZM112 50.2L121.3 26.6L130.5 50.2H111.9H112ZM172.7 82.9H201.9L198.7 76.7V59.3H210.1C230.7 59.3 245.7 49 245.7 29.5V29.3C245.7 11 232.2 0.199997 211.3 0.199997H172.7L175.8 6.4V76.8L172.7 83V82.9ZM198.8 41.2V19.3H209.6C217.9 19.3 222.9 23.1 222.9 30.2V30.4C222.9 36.9 217.9 41.2 209.8 41.2H198.9H198.8ZM252.8 82.9H282.1L279 76.6V6.3L282.1 0.0999985H252.8L255.9 6.3V76.7L252.8 83V82.9ZM291.1 82.9H361.4V60.2L355.2 63.3H316.9V50.2H350.4L356.6 53.3V29L350.4 32.1H316.8V19.6H354.5L360.7 22.8V0.0999985H291L294.1 6.2V76.6L291 82.9H291.1ZM370 82.9H395.9V37.5L431.3 82.9H454.6L451.5 76.6V0.0999985H425.7L428.8 6.3V43.9L394.7 0.0999985H370.2L373.3 6.3V76.7L370.2 83L370 82.9ZM483.1 82.9H512.3L509.2 76.6V20.1H534.1V0H461.4V20.1H486.3V76.6L483.2 82.8L483.1 82.9Z" fill="black"/>
<path fill-rule="evenodd" clip-rule="evenodd" d="M0.0999985 127.703L2.7 123.303C5 124.903 7.6 126.103 10.3 126.903C13.1 127.803 15.7 128.203 18.2 128.203C20.7 128.203 23.7 127.603 25.5 126.403C27.4 125.203 28.3 123.603 28.3 121.703C28.3 119.803 27.4 118.303 25.7 117.403C24 116.503 21.3 115.903 17.7 115.803C11.5 115.803 7.3 115.003 5 113.703C2.7 112.303 1.5 110.103 1.5 107.003C1.5 103.903 2.8 101.703 5.3 100.003C7.8 98.2031 11.2 97.3031 15.5 97.3031C19.8 97.3031 21.2 97.7031 24 98.5031C26.7 99.3031 29.4 100.503 31.9 102.103L29.2 106.503C27.1 105.103 24.8 104.003 22.4 103.203C20 102.403 17.6 102.003 15.4 102.003C13.2 102.003 10.7 102.403 9.2 103.303C7.6 104.203 6.9 105.403 6.9 106.803C6.9 108.203 7.7 109.403 9.3 110.003C10.9 110.603 13.6 110.903 17.5 110.903C21.4 110.903 27 111.803 29.7 113.603C32.5 115.403 33.8 118.103 33.8 121.803C33.8 125.503 32.4 127.703 29.6 129.803C26.8 131.903 23.2 133.003 18.7 133.003C14.2 133.003 12.1 132.503 8.9 131.603C5.7 130.703 2.7 129.303 0 127.603L0.0999985 127.703ZM43.4 132.003V98.1031H48.7V113.203L66.7 98.1031H73.7L59.5 110.103L75.9 131.903H69.9L55.8 113.203L48.8 119.103V131.903H43.5L43.4 132.003ZM87.8 118.903H101.1L94.5 105.903L87.8 118.903ZM75.5 132.003H81.1L85.5 123.403H103.4L107.8 132.003H113.5L96.1 98.1031H92.8L75.5 132.003ZM123.8 132.003V102.803H109.5V98.1031H143.4V102.803H129.1V132.003H123.8ZM148.6 132.003V98.1031H180.4V103.103H153.9V111.603H171.3V116.503H153.9V127.203H181.9V132.103H148.6V132.003ZM210.3 103.103H194.9V111.103H210.4C212.1 111.103 213.4 110.803 214.2 110.103C215.1 109.403 215.5 108.403 215.5 107.103C215.5 105.803 215.1 104.803 214.2 104.103C213.3 103.403 212 103.103 210.3 103.103ZM212.1 116.003H194.9V127.203H212.1C214 127.203 215.4 126.703 216.4 125.703C217.4 124.703 217.9 123.303 217.9 121.603C217.9 119.903 217.4 118.503 216.4 117.503C215.4 116.503 213.9 116.003 212.1 116.003ZM189.6 132.003V98.1031H210.4C213.8 98.1031 216.5 98.8031 218.2 100.203C220 101.603 220.9 103.703 220.9 106.403C220.9 109.103 220.6 109.003 220.1 110.103C219.5 111.203 218.7 112.003 217.7 112.703C219.6 113.803 221 115.003 222 116.603C223 118.103 223.4 119.803 223.4 121.703C223.4 124.903 222.3 127.303 220.2 129.203C218.1 131.003 215.2 131.903 211.4 131.903H189.5L189.6 132.003ZM251.6 128.103C256.1 128.103 259.8 126.903 262.7 124.403C265.6 122.003 267 118.803 267 115.103C267 111.403 265.6 108.203 262.7 105.803C259.8 103.303 256.1 102.103 251.6 102.103C247.1 102.103 243.4 103.303 240.6 105.803C237.8 108.203 236.3 111.403 236.3 115.103C236.3 118.803 237.7 122.003 240.6 124.403C243.4 126.903 247.1 128.103 251.6 128.103ZM251.6 133.103C245.6 133.103 240.6 131.403 236.7 128.003C232.8 124.603 230.9 120.303 230.9 115.103C230.9 109.903 232.8 105.603 236.7 102.303C240.6 98.9031 245.6 97.2031 251.6 97.2031C257.6 97.2031 262.7 98.9031 266.6 102.203C270.5 105.603 272.4 109.903 272.4 115.103C272.4 120.303 270.4 124.603 266.6 128.003C262.7 131.403 257.7 133.103 251.6 133.103ZM286.9 118.903H300.2L293.6 105.903L286.9 118.903ZM274.6 132.003L291.9 98.1031H295.2L312.6 132.003H306.9L302.5 123.403H284.6L280.2 132.003H274.6ZM323 112.303H341C342.8 112.303 344.2 111.903 345.2 111.103C346.2 110.303 346.7 109.203 346.7 107.703C346.7 106.203 346.2 105.103 345.2 104.303C344.2 103.503 342.8 103.103 341 103.103H323V112.303ZM323 117.203V132.003H317.7V98.1031H341C344.5 98.1031 347.2 98.9031 349.2 100.603C351.2 102.303 352.1 104.603 352.1 107.603C352.1 110.603 351.3 112.103 349.8 113.903C348.3 115.703 346.2 116.703 343.7 117.103L353.2 132.003H347.4L337.8 117.203H323ZM376.9 98.1031C382.4 98.1031 386.9 99.7031 390.3 102.803C393.7 106.003 395.4 110.103 395.4 115.103C395.4 120.103 393.7 124.303 390.4 127.403C387.1 130.503 382.6 132.003 376.9 132.003H361.9V98.1031H376.9ZM377 103.003H367.2V127.203H377C381 127.203 384.2 126.103 386.5 124.003C388.8 121.803 390 118.903 390 115.203C390 111.503 388.8 108.703 386.4 106.403C384 104.103 380.9 103.003 377 103.003ZM466.8 123.703C464.9 126.703 462.3 129.103 459.2 130.703C456.1 132.303 452.5 133.103 448.5 133.103C442.5 133.103 437.6 131.403 433.8 128.003C429.9 124.603 428 120.303 428 115.203C428 110.103 429.9 105.703 433.8 102.303C437.7 98.9031 442.6 97.2031 448.5 97.2031C454.4 97.2031 455.6 97.9031 458.6 99.3031C461.6 100.703 464.1 102.703 465.9 105.203L461.7 108.103C460.3 106.203 458.5 104.703 456.2 103.603C453.9 102.603 451.4 102.003 448.5 102.003C444.1 102.003 440.6 103.203 437.7 105.703C434.9 108.203 433.4 111.303 433.4 115.003C433.4 118.703 434.8 121.803 437.7 124.303C440.6 126.803 444.2 128.003 448.5 128.003C452.8 128.003 454.2 127.403 456.5 126.203C458.8 125.003 460.8 123.203 462.6 120.703L466.8 123.603V123.703ZM493.5 128.103C498 128.103 501.7 126.903 504.6 124.403C507.5 122.003 508.9 118.803 508.9 115.103C508.9 111.403 507.5 108.203 504.6 105.803C501.7 103.303 498 102.103 493.5 102.103C489 102.103 485.3 103.303 482.5 105.803C479.7 108.203 478.2 111.403 478.2 115.103C478.2 118.803 479.6 122.003 482.5 124.403C485.3 126.903 489 128.103 493.5 128.103ZM493.5 133.103C487.5 133.103 482.5 131.403 478.6 128.003C474.7 124.603 472.8 120.303 472.8 115.103C472.8 109.903 474.7 105.603 478.6 102.303C482.5 98.9031 487.5 97.2031 493.5 97.2031C499.5 97.2031 504.6 98.9031 508.5 102.203C512.4 105.603 514.3 109.903 514.3 115.103C514.3 120.303 512.3 124.603 508.5 128.003C504.6 131.403 499.6 133.103 493.5 133.103ZM530.8 125.903C531.7 125.903 532.5 126.203 533.1 126.903C533.7 127.603 534 128.503 534 129.503C534 130.503 533.7 131.403 533.1 132.103C532.5 132.803 531.7 133.103 530.8 133.103C529.9 133.103 529 132.803 528.4 132.103C527.8 131.403 527.5 130.603 527.5 129.503C527.5 128.403 527.8 127.603 528.5 126.903C529.2 126.203 529.9 125.903 530.9 125.903H530.8Z" fill="black"/>
</svg>
