<?xml version="1.0" encoding="UTF-8"?>
<svg id="Layer_1" xmlns="http://www.w3.org/2000/svg" version="1.1" viewBox="0 0 612 216">
  <!-- Generator: Adobe Illustrator 30.3.0, SVG Export Plug-In . SVG Version: 2.1.3 Build 182)  -->
  <defs>
    <style>
      .st0 {
        fill-rule: evenodd;
      }
    </style>
  </defs>
  <path class="st0" d="M77.8,124.2c20.1,0,33.5-8.5,33.5-25.5v-.2c0-15.5-11.8-21.7-30.9-25.8-11.5-2.6-14.3-4.3-14.3-8v-.2c0-3,2.7-5.3,8.3-5.3,5.6,0,11.9,1.7,17.9,4.9,1.2,1.9,2.2,3.5,3.6,5.9l13.2-18.8c-9-7.2-20-9.6-34.1-9.6s-32.1,9.7-32.1,25.1v.2c0,17,13.6,22,31.2,26,11.2,2.6,14,4.5,14,7.9v.2c0,3.6-3.3,5.7-9.5,5.7s-15-2.2-21.7-6.4c-.9-1.7-2.1-4-3.3-6.1l-14.6,17.8c10.2,9.1,24.1,12.2,38.8,12.2h0ZM114,124.3h26.6v-6.2s3.4-8.6,3.4-8.6h32l3.5,8.6v6.2s27.2,0,27.2,0l-32.6-76.6v-6.2s-27.4,0-27.4,0v6.3s-32.6,76.6-32.6,76.6h0ZM150.9,91.6l9.3-23.6,9.2,23.6h-18.6ZM211.6,124.3h29.2l-3.2-6.2v-17.4h11.4c20.6,0,35.6-10.3,35.6-29.8v-.2c0-18.3-13.5-29.1-34.4-29.1h-38.6l3.1,6.2v70.4l-3.1,6.2h0ZM237.7,82.6v-21.9h10.8c8.3,0,13.3,3.8,13.3,10.9v.2c0,6.5-5,10.8-13.1,10.8h-10.9ZM291.7,124.3h29.3l-3.1-6.3V47.7l3.1-6.2h-29.3s3.1,6.2,3.1,6.2v70.4l-3.1,6.3h0ZM330,124.3h70.3v-22.7s-6.2,3.1-6.2,3.1h-38.3v-13.1s33.5,0,33.5,0l6.2,3.1v-24.3l-6.2,3.1h-33.6v-12.5h37.7l6.2,3.2v-22.7h-69.7l3.1,6.1v70.4l-3.1,6.3h0ZM408.9,124.3h25.9v-45.4l35.4,45.4h23.3l-3.1-6.3V41.5h-25.8l3.1,6.2v37.6l-34.1-43.8h-24.5l3.1,6.2v70.4l-3.1,6.3h0ZM522,124.3h29.2s-3.1-6.3-3.1-6.3v-56.5h24.9v-20.1h-72.7v20.1h24.9s0,56.5,0,56.5l-3.1,6.2Z"/>
  <path class="st0" d="M39,169.1l2.6-4.4c2.3,1.6,4.9,2.8,7.6,3.6,2.8.9,5.4,1.3,7.9,1.3s5.5-.6,7.3-1.8c1.9-1.2,2.8-2.8,2.8-4.7s-.9-3.4-2.6-4.3c-1.7-.9-4.4-1.5-8-1.6-6.2,0-10.4-.8-12.7-2.1-2.3-1.4-3.5-3.6-3.5-6.7s1.3-5.3,3.8-7c2.5-1.8,5.9-2.7,10.2-2.7s5.7.4,8.5,1.2c2.7.8,5.4,2,7.9,3.6l-2.7,4.4c-2.1-1.4-4.4-2.5-6.8-3.3-2.4-.8-4.8-1.2-7-1.2s-4.7.4-6.2,1.3c-1.6.9-2.3,2.1-2.3,3.5s.8,2.6,2.4,3.2c1.6.6,4.3.9,8.2.9s9.5.9,12.2,2.7c2.8,1.8,4.1,4.5,4.1,8.2s-1.4,5.9-4.2,8c-2.8,2.1-6.4,3.2-10.9,3.2s-6.6-.5-9.8-1.4c-3.2-.9-6.2-2.3-8.9-4h0ZM82.3,173.4v-33.9h5.3v15.1l18-15.1h7l-14.2,12,16.4,21.8h-6l-14.1-18.7-7,5.9v12.8h-5.3ZM126.7,160.3h13.3l-6.6-13-6.7,13h0ZM114.4,173.4h5.6l4.4-8.6h17.9l4.4,8.6h5.7l-17.4-33.9h-3.3l-17.3,33.9h0ZM162.7,173.4v-29.2h-14.3v-4.7h33.9v4.7h-14.3v29.2h-5.3ZM187.5,173.4v-33.9h31.8v5h-26.5v8.5h17.4v4.9h-17.4v10.7h28v4.9h-33.3ZM249.2,144.5h-15.4v8h15.5c1.7,0,3-.3,3.8-1,.9-.7,1.3-1.7,1.3-3s-.4-2.3-1.3-3c-.9-.7-2.2-1-3.9-1h0ZM251,157.4h-17.2v11.2h17.2c1.9,0,3.3-.5,4.3-1.5,1-1,1.5-2.4,1.5-4.1s-.5-3.1-1.5-4.1c-1-1-2.5-1.5-4.3-1.5h0ZM228.5,173.4v-33.9h20.8c3.4,0,6.1.7,7.8,2.1,1.8,1.4,2.7,3.5,2.7,6.2s-.3,2.6-.8,3.7c-.6,1.1-1.4,1.9-2.4,2.6,1.9,1.1,3.3,2.3,4.3,3.9,1,1.5,1.4,3.2,1.4,5.1,0,3.2-1.1,5.6-3.2,7.5-2.1,1.8-5,2.7-8.8,2.7h-21.9ZM290.5,169.5c4.5,0,8.2-1.2,11.1-3.7,2.9-2.4,4.3-5.6,4.3-9.3s-1.4-6.9-4.3-9.3c-2.9-2.5-6.6-3.7-11.1-3.7s-8.2,1.2-11,3.7c-2.8,2.4-4.3,5.6-4.3,9.3s1.4,6.9,4.3,9.3c2.8,2.5,6.5,3.7,11,3.7h0ZM290.5,174.5c-6,0-11-1.7-14.9-5.1-3.9-3.4-5.8-7.7-5.8-12.9s1.9-9.5,5.8-12.8c3.9-3.4,8.9-5.1,14.9-5.1s11.1,1.7,15,5c3.9,3.4,5.8,7.7,5.8,12.9s-2,9.5-5.8,12.9c-3.9,3.4-8.9,5.1-15,5.1h0ZM325.8,160.3h13.3l-6.6-13-6.7,13h0ZM313.5,173.4l17.3-33.9h3.3l17.4,33.9h-5.7l-4.4-8.6h-17.9l-4.4,8.6h-5.6ZM361.9,153.7h18c1.8,0,3.2-.4,4.2-1.2s1.5-1.9,1.5-3.4-.5-2.6-1.5-3.4c-1-.8-2.4-1.2-4.2-1.2h-18v9.2h0ZM361.9,158.6v14.8h-5.3v-33.9h23.3c3.5,0,6.2.8,8.2,2.5,2,1.7,2.9,4,2.9,7s-.8,4.5-2.3,6.3c-1.5,1.8-3.6,2.8-6.1,3.2l9.5,14.9h-5.8l-9.6-14.8h-14.8ZM415.8,139.5c5.5,0,10,1.6,13.4,4.7,3.4,3.2,5.1,7.3,5.1,12.3s-1.7,9.2-5,12.3c-3.3,3.1-7.8,4.6-13.5,4.6h-15v-33.9h15ZM415.9,144.4h-9.8v24.2h9.8c4,0,7.2-1.1,9.5-3.2,2.3-2.2,3.5-5.1,3.5-8.8s-1.2-6.5-3.6-8.8c-2.4-2.3-5.5-3.4-9.4-3.4h0ZM505.7,165.1c-1.9,3-4.5,5.4-7.6,7-3.1,1.6-6.7,2.4-10.7,2.4-6,0-10.9-1.7-14.7-5.1-3.9-3.4-5.8-7.7-5.8-12.8s1.9-9.5,5.8-12.9c3.9-3.4,8.8-5.1,14.7-5.1s7.1.7,10.1,2.1c3,1.4,5.5,3.4,7.3,5.9l-4.2,2.9c-1.4-1.9-3.2-3.4-5.5-4.5-2.3-1-4.8-1.6-7.7-1.6-4.4,0-7.9,1.2-10.8,3.7-2.8,2.5-4.3,5.6-4.3,9.3s1.4,6.8,4.3,9.3c2.9,2.5,6.5,3.7,10.8,3.7s5.7-.6,8-1.8c2.3-1.2,4.3-3,6.1-5.5l4.2,2.9h0ZM532.4,169.5c4.5,0,8.2-1.2,11.1-3.7,2.9-2.4,4.3-5.6,4.3-9.3s-1.4-6.9-4.3-9.3c-2.9-2.5-6.6-3.7-11.1-3.7s-8.2,1.2-11,3.7c-2.8,2.4-4.3,5.6-4.3,9.3s1.4,6.9,4.3,9.3c2.8,2.5,6.5,3.7,11,3.7h0ZM532.4,174.5c-6,0-11-1.7-14.9-5.1-3.9-3.4-5.8-7.7-5.8-12.9s1.9-9.5,5.8-12.8c3.9-3.4,8.9-5.1,14.9-5.1s11.1,1.7,15,5c3.9,3.4,5.8,7.7,5.8,12.9s-2,9.5-5.8,12.9c-3.9,3.4-8.9,5.1-15,5.1h0ZM569.7,167.3c.9,0,1.7.3,2.3,1,.6.7.9,1.6.9,2.6s-.3,1.9-.9,2.6c-.6.7-1.4,1-2.3,1s-1.8-.3-2.4-1c-.6-.7-.9-1.5-.9-2.6s.3-1.9,1-2.6c.7-.7,1.4-1,2.4-1Z"/>
</svg>