<svg xmlns="http://www.w3.org/2000/svg" viewBox="0 0 200 240" fill="none">
  <!-- Cranium -->
  <path d="M100 18C57 18 24 52 24 93c0 26 13 49 32 63v22h88V156c19-14 32-37 32-63 0-41-33-75-76-75z" fill="currentColor" opacity="0.9"/>
  <!-- Jaw plate -->
  <rect x="44" y="173" width="112" height="10" rx="2" fill="currentColor" opacity="0.7"/>
  <!-- Teeth -->
  <rect x="54"  y="183" width="14" height="20" rx="2" fill="currentColor" opacity="0.75"/>
  <rect x="72"  y="183" width="14" height="22" rx="2" fill="currentColor" opacity="0.75"/>
  <rect x="90"  y="183" width="14" height="22" rx="2" fill="currentColor" opacity="0.75"/>
  <rect x="108" y="183" width="14" height="22" rx="2" fill="currentColor" opacity="0.75"/>
  <rect x="126" y="183" width="14" height="20" rx="2" fill="currentColor" opacity="0.75"/>
  <!-- Left eye -->
  <ellipse cx="76"  cy="98" rx="22" ry="24" fill="#282828"/>
  <!-- Right eye -->
  <ellipse cx="124" cy="98" rx="22" ry="24" fill="#282828"/>
  <!-- Nose -->
  <path d="M92 128l8-14 8 14H92z" fill="#282828"/>
</svg>
